<?xml version="1.0"?>
<svg xmlns="http://www.w3.org/2000/svg" width="1012" height="160" viewBox="0 0 1012 160" fill="none">
<path d="M456.392 21.3458C455.631 16.4534 446.115 15.7007 440.405 15.7007H436.028C430.128 15.7007 420.232 16.4534 419.661 21.3458L397.013 133.495C396.823 134.624 397.013 135.565 397.774 136.317C399.297 138.011 402.723 138.952 408.432 138.952C416.616 138.952 420.993 137.258 421.754 133.871L424.99 114.866C424.99 114.866 437.551 121.828 449.731 114.866C450.873 122.204 452.966 133.871 452.966 133.871C453.728 137.446 460.769 138.763 466.86 138.763C469.143 138.763 476.566 138.575 478.85 135.564C479.421 134.812 479.611 133.871 479.421 133.118L456.392 21.3458ZM446.686 92.4737C438.312 99.2478 428.415 92.4737 428.415 92.4737L437.36 44.1143C437.17 43.9261 444.973 83.6298 446.686 92.4737Z" fill="white"/>
<path d="M523.003 30.5662C499.975 30.5662 487.224 41.6681 487.224 61.6141V126.156C487.224 146.102 499.975 157.204 523.003 157.204C546.983 157.204 560.115 146.102 560.115 126.156V86.6406C560.115 82.5009 553.454 79.6783 543.748 79.6783H539.371C529.284 79.6783 522.813 82.3127 522.813 86.6406V98.1189C522.813 99.2479 523.574 102.07 530.235 102.07H534.803V125.403C534.803 131.049 531.377 133.871 524.145 133.871C517.103 133.871 513.487 131.049 513.487 125.403V62.9313C513.487 54.84 520.148 53.711 524.145 53.711C528.142 53.711 534.803 54.84 534.803 62.9313V72.1516C534.803 72.9042 535.184 73.6569 535.564 74.2214C537.087 75.7268 539.942 75.5386 544.509 75.5386C545.27 75.5386 546.222 75.5386 547.174 75.5386C550.409 75.5386 560.115 75.5386 560.115 70.458V61.6141C560.115 41.48 546.983 30.5662 523.003 30.5662Z" fill="white"/>
<path d="M624.252 15.7007H589.424C579.528 15.7007 573.057 18.1469 573.057 22.0984V132.366C573.057 136.505 579.337 138.952 589.424 138.952H624.252C634.339 138.952 640.62 136.505 640.62 132.366V120.699C640.62 116.183 632.055 114.49 624.252 114.49H599.511V86.8287H616.259C626.346 86.8287 632.626 84.0061 632.626 79.4901V70.6461C632.626 66.1301 625.965 62.9312 616.259 62.9312H599.511V39.7864H624.252C631.865 39.7864 640.62 38.281 640.62 33.9531V21.9103C640.81 18.1469 634.339 15.7007 624.252 15.7007Z" fill="white"/>
<path d="M716.937 0.270935C711.418 0.270935 704.947 1.02361 704.947 4.97517V74.5978L685.725 20.7814C684.012 16.0772 672.403 15.7008 668.977 15.7008C660.413 15.7008 651.848 17.5825 651.848 22.0986V134.247C651.848 137.446 656.035 138.952 663.838 138.952C673.925 138.952 676.019 136.317 676.019 134.247V64.0603L700.76 134.436C702.283 137.258 708.182 138.952 715.605 138.952C724.359 138.952 729.498 136.882 729.498 133.307V4.97517C729.498 1.02361 722.647 0.270935 716.937 0.270935Z" fill="white"/>
<path d="M778.22 13.8192C755.191 13.8192 742.44 24.9211 742.44 44.8671V109.409C742.44 129.355 755.191 140.457 778.22 140.457C802.2 140.457 815.332 129.355 815.332 109.409V96.0491C815.332 92.8503 810.574 91.1567 802.39 91.1567C795.348 91.1567 790.019 91.1567 790.019 94.7319V108.845C790.019 114.49 786.594 117.312 779.361 117.312C772.129 117.312 768.704 114.49 768.704 108.845V46.3724C768.704 38.2812 775.365 37.1521 779.361 37.1521C783.358 37.1521 790.019 38.2812 790.019 46.3724V55.5927C790.019 56.3454 790.4 57.0981 790.781 57.6626C792.303 59.168 795.158 58.9798 799.725 58.9798C800.487 58.9798 801.438 58.9798 802.39 58.9798C805.625 58.9798 815.332 58.9798 815.332 53.8992V45.0553C815.332 24.9212 802.2 13.8192 778.22 13.8192Z" fill="white"/>
<path d="M840.644 34.7059C832.079 34.7059 826.941 36.5876 826.941 39.7865V133.683C826.941 137.634 833.982 138.952 840.644 138.952C848.637 138.952 853.585 136.882 853.585 133.683V39.7865C853.585 36.7758 848.827 34.7059 840.644 34.7059Z" fill="white"/>
<path d="M919.816 15.7007H884.988C875.091 15.7007 868.62 18.1469 868.62 22.0984V132.366C868.62 136.505 874.901 138.952 884.988 138.952H919.816C929.903 138.952 936.183 136.505 936.183 132.366V120.699C936.183 116.183 927.619 114.49 919.816 114.49H895.075V86.8287H906.113C916.2 86.8287 922.48 84.0061 922.48 79.4901V70.6461C922.48 66.1301 915.819 62.9312 906.113 62.9312H895.075V39.7864H919.816C927.429 39.7864 936.183 38.281 936.183 33.9531V21.9103C936.183 18.1469 929.903 15.7007 919.816 15.7007Z" fill="white"/>
<path d="M984.905 69.1408C969.489 58.227 964.921 52.2056 964.921 42.4208C964.921 39.5982 966.063 35.8348 975.579 35.8348C985.095 35.8348 986.237 39.5982 986.237 42.4208V47.6895C986.237 50.512 990.233 52.2056 997.085 52.2056H1002.22C1009.84 52.2056 1010.98 49.7594 1010.98 48.254V45.6196C1010.98 24.921 998.607 14.0072 975.198 14.0072C951.599 14.0072 938.657 25.1092 938.657 45.0551C938.657 59.9205 945.509 70.0816 965.111 84.0062C980.718 94.92 985.095 100.941 985.095 111.855C985.095 116.748 981.859 118.817 974.056 118.817C964.35 118.817 963.018 115.619 963.018 112.043V105.646C963.018 102.635 958.07 100.565 950.267 100.565C944.177 100.565 938.086 102.07 938.086 105.269V109.221C938.086 129.731 950.647 140.645 974.627 140.645C998.607 140.645 1011.74 129.355 1011.74 108.844C1011.74 93.0383 1004.89 83.0653 984.905 69.1408Z" fill="white"/>
<path d="M63.562 16.9308C57.0912 16.9308 50.0495 18.248 50.0495 22.0114V65.6666H27.592V22.0114C27.592 18.8125 22.6437 16.9308 14.4601 16.9308C6.08609 16.9308 0.94751 18.8125 0.94751 22.0114V134.913C0.94751 138.864 7.98926 140.182 14.6504 140.182C22.6437 140.182 27.592 138.112 27.592 134.913V89.9404H50.2398V134.913C50.2398 138.864 57.4719 140.182 63.7524 140.182C70.0328 140.182 77.2649 138.864 77.2649 134.913V22.0114C77.0746 18.248 70.0328 16.9308 63.562 16.9308Z" fill="white"/>
<path d="M202.875 17.4954H182.701C172.805 17.4954 166.334 19.9416 166.334 23.8931V135.666C166.334 139.617 173.376 140.934 180.037 140.934C188.03 140.934 192.978 138.865 192.978 135.666V91.8222H202.875C226.665 91.8222 239.416 80.9084 239.416 60.3979V48.5433C239.416 28.221 226.665 17.4954 202.875 17.4954ZM213.152 48.3551V60.5861C213.152 66.9839 210.297 69.4301 202.875 69.4301H192.978V39.8875H202.875C210.107 39.8875 213.152 42.3337 213.152 48.3551Z" fill="white"/>
<path d="M319.159 59.4569C317.636 39.3228 304.124 29.538 280.334 31.4197L260.351 32.9251C255.973 33.3014 251.977 34.0541 249.122 35.1831C244.935 36.8766 244.174 38.9465 244.364 40.4518L252.357 143.38C252.548 146.579 257.686 147.708 263.015 147.708C264.157 147.708 265.299 147.708 266.251 147.52C269.867 147.332 272.912 146.579 275.005 145.638C278.241 144.321 278.811 142.44 278.811 141.311L276.147 105.935L286.044 105.182C298.034 104.241 306.979 100.854 312.688 95.0209C318.398 89.3758 320.872 81.2846 319.92 71.1234L319.159 59.4569ZM291.943 80.5319C290.421 82.0372 287.947 82.7899 284.331 82.9781L274.434 83.7308L272.15 54.3764L282.047 53.6237C289.279 53.0592 292.514 55.3172 292.895 61.1505L293.847 73.3815C294.037 76.7685 293.466 79.0265 291.943 80.5319Z" fill="white"/>
<path d="M389.957 31.7962C388.815 29.9145 385.199 29.1618 378.728 29.1618C370.544 29.1618 365.977 30.6671 364.645 33.866L356.651 56.4463L343.329 22.0114C341.616 17.4953 331.91 16.9308 327.913 16.9308C321.252 16.9308 317.255 18.0598 315.923 20.1297C315.352 21.0705 315.162 22.0114 315.733 23.1404L342.568 87.8706V135.101C342.568 139.053 349.8 140.37 356.08 140.37C362.17 140.37 369.402 139.053 369.402 135.101V87.6824L390.337 34.8069C390.528 33.866 390.528 32.737 389.957 31.7962Z" fill="white"/>
<path d="M140.26 42.1454C139.499 37.253 129.983 36.5004 124.274 36.5004H119.896C113.997 36.5004 104.1 37.253 103.529 42.1454L81.0716 154.294C80.8813 155.423 81.0716 156.364 81.8328 157.117C83.3554 158.81 86.7811 159.751 92.4906 159.751C100.674 159.751 105.052 158.058 105.813 154.671L109.048 135.666C109.048 135.666 121.609 142.628 133.79 135.666C134.932 143.004 137.025 154.671 137.025 154.671C137.786 158.246 144.828 159.563 150.918 159.563C153.202 159.563 160.624 159.375 162.908 156.364C163.479 155.611 163.669 154.671 163.479 153.918L140.26 42.1454ZM130.554 113.273C122.18 120.048 112.284 113.273 112.284 113.273L121.229 64.9139C121.229 64.9139 129.032 104.429 130.554 113.273Z" fill="white"/>
</svg>
