<?xml version="1.0"?>
<svg xmlns="http://www.w3.org/2000/svg" width="5666" height="1080" viewBox="0 0 5666 1080" fill="none">
<path d="M1551.97 489.101L1464.92 539.636C1454.61 518.48 1438.53 500.675 1418.53 488.275C1398.54 475.875 1375.45 469.386 1351.93 469.558C1335.24 469.021 1318.65 472.344 1303.46 479.269C1288.26 486.193 1274.87 496.533 1264.32 509.483C1241.59 538.565 1229.93 574.779 1231.4 611.668C1229.98 649.064 1241.62 685.786 1264.32 715.529C1274.7 728.731 1288.04 739.302 1303.26 746.383C1318.48 753.465 1335.15 756.86 1351.93 756.291C1375.87 755.785 1399.16 748.342 1418.97 734.864C1438.77 721.386 1454.25 702.45 1463.53 680.35L1554.76 728.092C1536.47 766.522 1507.32 798.744 1470.92 820.776C1434.53 842.807 1392.48 853.682 1349.97 852.055C1319.01 853.259 1288.13 847.997 1259.31 836.604C1230.49 825.212 1204.36 807.94 1182.57 785.886C1160.78 762.716 1143.85 735.411 1132.78 705.584C1121.71 675.757 1116.73 644.013 1118.12 612.226C1116.8 580.616 1121.82 549.061 1132.89 519.426C1143.96 489.79 1160.85 462.676 1182.57 439.684C1204.4 417.731 1230.56 400.561 1259.38 389.266C1288.2 377.971 1319.05 372.797 1349.97 374.073C1391.03 372.382 1431.74 382.269 1467.45 402.607C1503.16 422.945 1532.45 452.915 1551.97 489.101Z" fill="#034E91"/>
<path d="M1949.54 659.413C1950.7 685.143 1946.52 710.834 1937.25 734.862C1927.98 758.891 1913.83 780.734 1895.7 799.011C1876.82 816.809 1854.59 830.667 1830.3 839.774C1806.02 848.882 1780.16 853.058 1754.24 852.058C1728.13 853.354 1702.02 849.319 1677.51 840.199C1653 831.08 1630.6 817.066 1611.67 799.011C1593.68 780.656 1579.66 758.787 1570.5 734.768C1561.33 710.75 1557.2 685.098 1558.39 659.413C1557.39 633.749 1561.59 608.149 1570.75 584.156C1579.91 560.163 1593.83 538.276 1611.67 519.816C1630.5 501.523 1652.84 487.261 1677.36 477.901C1701.87 468.54 1728.03 464.278 1754.24 465.373C1780.41 464.221 1806.54 468.349 1831.08 477.51C1855.62 486.672 1878.07 500.679 1897.09 518.699C1914.97 537.332 1928.84 559.428 1937.86 583.628C1946.88 607.828 1950.86 633.618 1949.54 659.413ZM1814.79 734.517C1830.71 712.581 1838.86 685.953 1837.94 658.855C1839.26 631.832 1831.61 605.13 1816.18 582.914C1808.59 573.92 1799.12 566.692 1788.45 561.734C1777.78 556.777 1766.15 554.208 1754.38 554.208C1742.62 554.208 1730.99 556.777 1720.32 561.734C1709.64 566.692 1700.18 573.92 1692.58 582.914C1676.94 605.039 1669.18 631.784 1670.54 658.855C1669.17 685.839 1676.94 712.497 1692.58 734.517C1700.18 743.511 1709.64 750.739 1720.32 755.696C1730.99 760.654 1742.62 763.223 1754.38 763.223C1766.15 763.223 1777.78 760.654 1788.45 755.696C1799.12 750.739 1808.59 743.511 1816.18 734.517H1814.79Z" fill="#034E91"/>
<path d="M2305.27 725.862C2305.82 743.765 2301.94 761.526 2293.95 777.557C2285.97 793.587 2274.13 807.385 2259.51 817.717C2223.08 842.395 2179.57 854.456 2135.64 852.059C2048.03 852.059 1985.72 821.998 1948.71 761.878L2020.69 714.136C2033.65 733.04 2051.9 747.703 2073.14 756.295C2094.9 765.674 2118.36 770.427 2142.05 770.254C2157.11 771.018 2172.14 768.145 2185.86 761.878C2190.31 760.104 2194.16 757.077 2196.93 753.163C2199.7 749.249 2201.28 744.615 2201.48 739.822C2201.73 734.045 2199.85 728.377 2196.18 723.908C2191.29 718.892 2185.11 715.319 2178.32 713.578C2170.64 711.001 2162.81 708.858 2154.89 707.156C2147.63 705.76 2136.75 704.364 2122.52 702.41C2083.11 698.846 2044.99 686.543 2010.92 666.394C1997.69 657.34 1987.06 644.967 1980.11 630.513C1973.16 616.058 1970.12 600.029 1971.3 584.031C1970.48 566.778 1974.1 549.602 1981.82 534.153C1989.54 518.704 2001.1 505.499 2015.39 495.805C2048.61 474.503 2087.56 463.883 2126.99 465.373C2162.34 464.746 2197.42 471.597 2229.94 485.475C2257 496.961 2281.47 513.765 2301.92 534.893L2238.87 590.732C2224.39 575.915 2206.99 564.269 2187.78 556.531C2168.57 548.794 2147.96 545.133 2127.27 545.781C2114.03 545.349 2100.86 547.926 2088.76 553.32C2084.46 554.746 2080.68 557.417 2077.9 560.996C2075.12 564.575 2073.46 568.899 2073.14 573.422C2073.13 578.11 2074.69 582.667 2077.57 586.362C2080.46 590.058 2084.49 592.678 2089.04 593.803C2105.77 599.189 2122.95 603.02 2140.38 605.25H2144.84H2149.31H2154.33C2193.74 610.457 2231.69 623.561 2265.93 643.779C2279.26 652.655 2289.95 664.965 2296.87 679.411C2303.79 693.857 2306.69 709.904 2305.27 725.862Z" fill="#034E91"/>
<path d="M2569.2 743.172L2608.54 819.392C2579.42 841.179 2543.9 852.67 2507.54 852.058C2487.51 854.051 2467.3 850.832 2448.87 842.713C2430.44 834.593 2414.42 821.847 2402.36 805.711C2386.68 780.083 2379.19 750.279 2380.88 720.278V554.156H2321.17V473.748H2379.48V382.172H2486.06V473.748H2591.24V554.156H2486.06V721.674C2485.23 726.886 2485.62 732.221 2487.22 737.252C2488.82 742.283 2491.58 746.868 2495.26 750.641C2498.95 754.415 2503.48 757.27 2508.47 758.979C2513.46 760.688 2518.78 761.202 2524 760.482C2540.63 760.198 2556.63 754.07 2569.2 743.172Z" fill="#034E91"/>
<path d="M3048.25 489.101L2960.92 539.636C2950.71 518.694 2934.84 501.031 2915.12 488.646C2895.4 476.26 2872.6 469.648 2849.32 469.558C2832.62 468.956 2816.01 472.25 2800.81 479.18C2785.61 486.109 2772.22 496.484 2761.71 509.483C2738.88 538.506 2727.2 574.762 2728.79 611.668C2727.26 649.08 2738.91 685.841 2761.71 715.529C2772.04 728.782 2785.38 739.389 2800.61 746.476C2815.84 753.563 2832.53 756.927 2849.32 756.291C2873.28 755.855 2896.6 748.441 2916.42 734.954C2936.24 721.466 2951.7 702.492 2960.92 680.35L3052.43 728.092C3034.06 766.522 3004.86 798.734 2968.42 820.76C2931.99 842.787 2889.9 853.665 2847.37 852.055C2816.4 853.259 2785.53 847.997 2756.71 836.604C2727.88 825.212 2701.75 807.94 2679.97 785.886C2658.18 762.716 2641.25 735.411 2630.18 705.584C2619.11 675.757 2614.12 644.013 2615.52 612.226C2614.19 580.616 2619.22 549.061 2630.29 519.426C2641.36 489.79 2658.25 462.676 2679.97 439.684C2701.8 417.731 2727.95 400.561 2756.77 389.266C2785.59 377.971 2816.44 372.797 2847.37 374.073C2888.23 372.659 2928.67 382.674 2964.16 402.994C2999.64 423.314 3028.76 453.133 3048.25 489.101Z" fill="#034E91"/>
<path d="M3451.96 654.665C3451.96 659.132 3451.96 669.741 3449.72 686.493H3183.84C3184.2 697.262 3186.87 707.826 3191.69 717.463C3196.51 727.101 3203.34 735.584 3211.74 742.332C3230.93 755.917 3254.1 762.697 3277.58 761.597C3296.7 762.21 3315.73 758.629 3333.32 751.105C3350.91 743.581 3366.65 732.296 3379.42 718.042L3447.21 781.699C3424.24 804.758 3396.8 822.871 3366.57 834.922C3336.34 846.974 3303.97 852.71 3271.44 851.777C3244.38 853.482 3217.25 849.631 3191.72 840.461C3166.2 831.291 3142.82 816.994 3123.02 798.45C3105.45 780.174 3091.75 758.539 3082.74 734.84C3073.73 711.141 3069.58 685.866 3070.56 660.528C3068.77 608.965 3087.42 558.784 3122.46 520.93C3140.88 502.166 3163.05 487.497 3187.52 477.876C3211.99 468.255 3238.21 463.899 3264.47 465.091C3289.74 463.728 3315.02 467.641 3338.7 476.581C3362.38 485.521 3383.94 499.293 3402.02 517.021C3419.06 535.496 3432.25 557.182 3440.83 580.815C3449.4 604.447 3453.18 629.553 3451.96 654.665ZM3184.67 614.461H3347.33C3346.97 604.565 3344.57 594.849 3340.3 585.916C3336.03 576.983 3329.97 569.023 3322.5 562.53C3306.59 550.139 3286.85 543.717 3266.7 544.383C3246.42 543.732 3226.59 550.479 3210.9 563.368C3203.27 569.64 3197.01 577.409 3192.5 586.197C3187.99 594.984 3185.33 604.603 3184.67 614.461Z" fill="#034E91"/>
<path d="M3735.14 479.052L3707.24 585.704C3694.6 578.419 3680.26 574.569 3665.67 574.536C3655.05 574.26 3644.51 576.403 3634.85 580.805C3625.18 585.207 3616.64 591.751 3609.87 599.943C3594.72 618.563 3586.97 642.126 3588.11 666.112V844.797H3482.09V473.747H3588.11V529.586C3598.88 511.326 3613.67 495.763 3631.35 484.077C3647.85 472.985 3667.28 467.057 3687.15 467.046C3703.93 466.717 3720.49 470.861 3735.14 479.052Z" fill="#034E91"/>
<path d="M3993.22 743.172L4032.56 819.392C4003.15 841.456 3967.18 852.963 3930.44 852.058C3910.41 854.051 3890.19 850.832 3871.77 842.713C3853.34 834.593 3837.32 821.847 3825.26 805.711C3809.71 780.029 3802.23 750.266 3803.78 720.278V554.156H3745.74V473.748H3803.78V382.172H3910.35V473.748H4014.14V554.156H3908.96V721.674C3908.18 726.902 3908.62 732.241 3910.25 737.268C3911.89 742.295 3914.67 746.872 3918.38 750.637C3922.09 754.402 3926.62 757.252 3931.62 758.961C3936.62 760.669 3941.95 761.19 3947.18 760.482C3964.11 760.445 3980.45 754.299 3993.22 743.172Z" fill="#034E91"/>
<path d="M4171.78 427.958H4066.04V348.946H4171.78V427.958ZM4171.78 843.68H4066.04V473.746H4171.78V843.68Z" fill="#034E91"/>
<path d="M4468.08 348.947L4457.19 430.192C4443.56 425.367 4429.25 422.729 4414.79 422.375C4388 422.375 4374.61 433.543 4374.61 455.878V473.747H4451.61V554.155H4374.61V843.681H4268.87V554.155H4211.4V473.747H4268.87V458.391C4268.16 442.54 4270.88 426.723 4276.85 412.024C4282.82 397.326 4291.9 384.094 4303.47 373.237C4331.14 350.245 4366.63 338.842 4402.51 341.408C4424.61 340.915 4446.67 343.452 4468.08 348.947ZM4613.43 427.959H4507.69V348.947H4613.43V427.959ZM4613.43 843.681H4507.69V473.747H4613.43V843.681Z" fill="#034E91"/>
<path d="M5026.07 654.667C5026.07 659.134 5026.07 669.743 5024.12 686.495H4758.23C4758.59 697.264 4761.27 707.828 4766.09 717.466C4770.9 727.103 4777.74 735.586 4786.13 742.334C4805.3 755.959 4828.49 762.743 4851.98 761.599C4871.1 762.212 4890.12 758.632 4907.72 751.107C4925.31 743.583 4941.04 732.298 4953.81 718.044L5021.61 781.701C4998.64 804.76 4971.19 822.873 4940.97 834.924C4910.74 846.976 4878.37 852.712 4845.84 851.779C4818.73 853.49 4791.56 849.643 4765.99 840.473C4740.42 831.303 4716.99 817.004 4697.13 798.452C4679.66 780.126 4666.04 758.476 4657.07 734.785C4648.11 711.094 4643.99 685.843 4644.96 660.53C4643.17 608.967 4661.82 558.786 4696.85 520.932C4715.28 502.169 4737.45 487.499 4761.92 477.878C4786.39 468.257 4812.6 463.901 4838.87 465.093C4864.09 463.752 4889.32 467.676 4912.96 476.616C4936.59 485.556 4958.1 499.317 4976.13 517.024C4993.17 535.498 5006.37 557.184 5014.94 580.817C5023.52 604.45 5027.3 629.555 5026.07 654.667ZM4759.07 614.463H4921.73C4921.38 604.536 4918.97 594.791 4914.64 585.85C4910.32 576.909 4904.18 568.967 4896.62 562.533C4880.71 550.141 4860.97 543.719 4840.82 544.385C4820.53 543.734 4800.7 550.481 4785.02 563.37C4777.44 569.667 4771.23 577.448 4766.77 586.234C4762.31 595.02 4759.69 604.627 4759.07 614.463Z" fill="#034E91"/>
<path d="M5439.55 843.68H5332.97V801.521C5319.1 817.854 5301.76 830.87 5282.2 839.615C5262.65 848.36 5241.39 852.611 5219.98 852.056C5196.69 852.779 5173.55 848.117 5152.35 838.432C5131.16 828.747 5112.48 814.301 5097.78 796.217C5065.94 756.855 5049.57 707.211 5051.74 656.619C5049.57 606.027 5065.94 556.383 5097.78 517.022C5112.65 499.225 5131.39 485.067 5152.57 475.631C5173.75 466.194 5196.81 461.73 5219.98 462.578C5241.38 462.083 5262.62 466.361 5282.17 475.102C5301.71 483.842 5319.07 496.827 5332.97 513.113V345.596H5439.55V843.68ZM5332.97 659.411C5333.96 633.081 5325.99 607.195 5310.37 585.983C5302.8 576.62 5293.1 569.202 5282.09 564.346C5271.07 559.49 5259.06 557.336 5247.04 558.063C5235.18 557.258 5223.3 559.383 5212.45 564.252C5201.6 569.12 5192.11 576.583 5184.82 585.983C5169.8 607.432 5162.25 633.238 5163.34 659.411C5162.16 685.422 5169.72 711.078 5184.82 732.281C5192.11 741.681 5201.6 749.144 5212.45 754.012C5223.3 758.881 5235.18 761.006 5247.04 760.201C5259.1 760.997 5271.18 758.875 5282.25 754.016C5293.33 749.156 5303.07 741.702 5310.65 732.281C5326.19 711.256 5334.07 685.539 5332.97 659.411Z" fill="#034E91"/>
<path d="M5593 359.558H5576.54V401.158H5563.99V359.558H5548.64V348.111H5594.12L5593 359.558Z" fill="#034E91"/>
<path d="M5665.26 401.158H5652.99V361.512L5640.15 401.158H5629.83L5617.28 361.792V401.158H5604.44V348.111H5622.58L5634.57 385.244L5646.57 348.111H5664.71L5665.26 401.158Z" fill="#034E91"/>
<path d="M144.799 402.934L252.842 488.883L435.789 342.964L618.459 488.33L726.223 402.658L435.789 171.62L144.799 402.934Z" fill="#034E91"/>
<path d="M0 861.42L108.042 947.092L435.789 686.759L763.536 947.368L871.578 861.696L435.789 515.139L0 861.42Z" fill="#034E91"/>
<path d="M435.789 171.621V0L0 346.281V861.42L435.789 515.138V342.965L144.799 574.003V402.935L435.789 171.621Z" fill="#86F47A"/>
<path d="M726.223 574.002V402.657L618.459 488.33L726.223 574.002Z" fill="#86F47A"/>
<path d="M435.79 171.621V0L871.579 346.281V861.696L435.79 515.138V342.965L726.223 574.003V402.659L435.79 171.621Z" fill="#0EC4B2"/>
<path d="M144.799 402.934V574.002L252.842 488.883L144.799 402.934Z" fill="#0EC4B2"/>
</svg>
