<?xml version="1.0"?>
<svg xmlns="http://www.w3.org/2000/svg" width="1012" height="160" viewBox="0 0 1012 160" fill="none">
<path d="M455.694 21.5945C454.932 16.7021 445.416 15.9495 439.707 15.9495H435.33C429.43 15.9495 419.533 16.7021 418.962 21.5945L396.314 133.743C396.124 134.872 396.314 135.813 397.076 136.566C398.598 138.259 402.024 139.2 407.733 139.2C415.917 139.2 420.294 137.507 421.056 134.12L424.291 115.115C424.291 115.115 436.852 122.077 449.032 115.115C450.174 122.453 452.268 134.12 452.268 134.12C453.029 137.695 460.071 139.012 466.161 139.012C468.445 139.012 475.867 138.824 478.151 135.813C478.722 135.061 478.912 134.12 478.722 133.367L455.694 21.5945ZM445.987 92.7225C437.613 99.4966 427.717 92.7225 427.717 92.7225L436.662 44.363C436.471 44.1749 444.274 83.8786 445.987 92.7225Z" fill="#0000DD"/>
<path d="M522.305 30.8149C499.276 30.8149 486.525 41.9169 486.525 61.8628V126.405C486.525 146.351 499.276 157.453 522.305 157.453C546.285 157.453 559.417 146.351 559.417 126.405V86.8893C559.417 82.7496 552.755 79.927 543.049 79.927H538.672C528.585 79.927 522.114 82.5614 522.114 86.8893V98.3676C522.114 99.4967 522.876 102.319 529.537 102.319H534.104V125.652C534.104 131.297 530.679 134.12 523.447 134.12C516.405 134.12 512.789 131.297 512.789 125.652V63.18C512.789 55.0887 519.45 53.9597 523.447 53.9597C527.443 53.9597 534.104 55.0887 534.104 63.18V72.4003C534.104 73.153 534.485 73.9056 534.866 74.4702C536.388 75.9755 539.243 75.7873 543.811 75.7873C544.572 75.7873 545.523 75.7873 546.475 75.7873C549.71 75.7873 559.417 75.7873 559.417 70.7068V61.8628C559.417 41.7287 546.285 30.8149 522.305 30.8149Z" fill="#0000DD"/>
<path d="M623.554 15.9495H588.725C578.829 15.9495 572.358 18.3957 572.358 22.3472V132.614C572.358 136.754 578.639 139.2 588.725 139.2H623.554C633.64 139.2 639.921 136.754 639.921 132.614V120.948C639.921 116.432 631.357 114.738 623.554 114.738H598.812V87.0775H615.56C625.647 87.0775 631.928 84.2549 631.928 79.7388V70.8949C631.928 66.3788 625.267 63.18 615.56 63.18H598.812V40.0351H623.554C631.166 40.0351 639.921 38.5298 639.921 34.2019V22.1591C640.111 18.3957 633.64 15.9495 623.554 15.9495Z" fill="#0000DD"/>
<path d="M716.238 0.519714C710.719 0.519714 704.248 1.27239 704.248 5.22394V74.8466L685.026 21.0302C683.313 16.3259 671.704 15.9496 668.278 15.9496C659.714 15.9496 651.15 17.8313 651.15 22.3473V134.496C651.15 137.695 655.337 139.2 663.14 139.2C673.227 139.2 675.32 136.566 675.32 134.496V64.3091L700.061 134.684C701.584 137.507 707.484 139.2 714.906 139.2C723.661 139.2 728.799 137.131 728.799 133.555V5.22394C728.799 1.27239 721.948 0.519714 716.238 0.519714Z" fill="#0000DD"/>
<path d="M777.521 14.0679C754.493 14.0679 741.741 25.1699 741.741 45.1159V109.658C741.741 129.604 754.493 140.706 777.521 140.706C801.501 140.706 814.633 129.604 814.633 109.658V96.2979C814.633 93.099 809.875 91.4055 801.691 91.4055C794.65 91.4055 789.321 91.4055 789.321 94.9807V109.093C789.321 114.738 785.895 117.561 778.663 117.561C771.431 117.561 768.005 114.738 768.005 109.093V46.6212C768.005 38.5299 774.666 37.4009 778.663 37.4009C782.66 37.4009 789.321 38.5299 789.321 46.6212V55.8415C789.321 56.5942 789.701 57.3469 790.082 57.9114C791.604 59.4167 794.459 59.2286 799.027 59.2286C799.788 59.2286 800.74 59.2286 801.691 59.2286C804.927 59.2286 814.633 59.2286 814.633 54.148V45.304C814.633 25.1699 801.501 14.0679 777.521 14.0679Z" fill="#0000DD"/>
<path d="M839.945 34.9547C831.381 34.9547 826.242 36.8364 826.242 40.0353V133.932C826.242 137.883 833.284 139.2 839.945 139.2C847.938 139.2 852.887 137.131 852.887 133.932V40.0353C852.887 37.0246 848.129 34.9547 839.945 34.9547Z" fill="#0000DD"/>
<path d="M919.117 15.9495H884.289C874.392 15.9495 867.922 18.3957 867.922 22.3472V132.614C867.922 136.754 874.202 139.2 884.289 139.2H919.117C929.204 139.2 935.484 136.754 935.484 132.614V120.948C935.484 116.432 926.92 114.738 919.117 114.738H894.376V87.0775H905.414C915.501 87.0775 921.782 84.2549 921.782 79.7388V70.8949C921.782 66.3788 915.121 63.18 905.414 63.18H894.376V40.0351H919.117C926.73 40.0351 935.484 38.5298 935.484 34.2019V22.1591C935.484 18.3957 929.204 15.9495 919.117 15.9495Z" fill="#0000DD"/>
<path d="M984.206 69.3896C968.79 58.4758 964.223 52.4544 964.223 42.6696C964.223 39.8471 965.364 36.0837 974.88 36.0837C984.396 36.0837 985.538 39.8471 985.538 42.6696V47.9383C985.538 50.7609 989.535 52.4544 996.386 52.4544H1001.52C1009.14 52.4544 1010.28 50.0082 1010.28 48.5028V45.8685C1010.28 25.1699 997.909 14.256 974.5 14.256C950.9 14.256 937.959 25.358 937.959 45.304C937.959 60.1693 944.81 70.3305 964.413 84.255C980.019 95.1688 984.396 101.19 984.396 112.104C984.396 116.996 981.161 119.066 973.358 119.066C963.652 119.066 962.319 115.867 962.319 112.292V105.894C962.319 102.884 957.371 100.814 949.568 100.814C943.478 100.814 937.388 102.319 937.388 105.518V109.47C937.388 129.98 949.949 140.894 973.929 140.894C997.909 140.894 1011.04 129.604 1011.04 109.093C1011.04 93.2871 1004.19 83.3141 984.206 69.3896Z" fill="#0000DD"/>
<path d="M62.8634 17.1796C56.3926 17.1796 49.3509 18.4968 49.3509 22.2601V65.9154H26.8934V22.2601C26.8934 19.0613 21.9451 17.1796 13.7615 17.1796C5.38748 17.1796 0.248901 19.0613 0.248901 22.2601V135.162C0.248901 139.113 7.29066 140.43 13.9518 140.43C21.9451 140.43 26.8934 138.361 26.8934 135.162V90.1892H49.5412V135.162C49.5412 139.113 56.7733 140.43 63.0537 140.43C69.3342 140.43 76.5663 139.113 76.5663 135.162V22.2601C76.376 18.4968 69.3342 17.1796 62.8634 17.1796Z" fill="#FF31CF"/>
<path d="M202.176 17.7441H182.003C172.106 17.7441 165.635 20.1903 165.635 24.1419V135.914C165.635 139.866 172.677 141.183 179.338 141.183C187.331 141.183 192.28 139.113 192.28 135.914V92.071H202.176C225.966 92.071 238.717 81.1572 238.717 60.6467V48.7921C238.717 28.4698 225.966 17.7441 202.176 17.7441ZM212.453 48.6039V60.8349C212.453 67.2326 209.599 69.6788 202.176 69.6788H192.28V40.1363H202.176C209.408 40.1363 212.453 42.5825 212.453 48.6039Z" fill="#FF31CF"/>
<path d="M318.46 59.7057C316.938 39.5716 303.425 29.7868 279.635 31.6685L259.652 33.1739C255.275 33.5502 251.278 34.3029 248.423 35.4319C244.236 37.1254 243.475 39.1953 243.665 40.7006L251.659 143.629C251.849 146.828 256.988 147.957 262.317 147.957C263.458 147.957 264.6 147.957 265.552 147.769C269.168 147.581 272.213 146.828 274.307 145.887C277.542 144.57 278.113 142.688 278.113 141.559L275.448 106.184L285.345 105.431C297.335 104.49 306.28 101.103 311.989 95.2697C317.699 89.6246 320.173 81.5333 319.221 71.3722L318.46 59.7057ZM291.245 80.7807C289.722 82.286 287.248 83.0387 283.632 83.2269L273.736 83.9795L271.452 54.6251L281.348 53.8725C288.58 53.308 291.816 55.566 292.196 61.3992L293.148 73.6302C293.338 77.0173 292.767 79.2753 291.245 80.7807Z" fill="#FF31CF"/>
<path d="M389.258 32.0449C388.116 30.1632 384.5 29.4106 378.029 29.4106C369.846 29.4106 365.278 30.9159 363.946 34.1148L355.952 56.6951L342.63 22.2601C340.917 17.7441 331.211 17.1796 327.215 17.1796C320.553 17.1796 316.557 18.3086 315.225 20.3784C314.654 21.3193 314.463 22.2601 315.034 23.3891L341.869 88.1194V135.35C341.869 139.301 349.101 140.619 355.382 140.619C361.472 140.619 368.704 139.301 368.704 135.35V87.9312L389.639 35.0556C389.829 34.1148 389.829 32.9858 389.258 32.0449Z" fill="#FF31CF"/>
<path d="M139.562 42.3942C138.801 37.5018 129.285 36.7491 123.575 36.7491H119.198C113.298 36.7491 103.401 37.5018 102.83 42.3942L80.373 154.543C80.1826 155.672 80.373 156.613 81.1342 157.366C82.6568 159.059 86.0825 160 91.792 160C99.9757 160 104.353 158.306 105.114 154.919L108.35 135.914C108.35 135.914 120.911 142.877 133.091 135.914C134.233 143.253 136.326 154.919 136.326 154.919C137.088 158.495 144.129 159.812 150.22 159.812C152.503 159.812 159.926 159.624 162.21 156.613C162.781 155.86 162.971 154.919 162.781 154.167L139.562 42.3942ZM129.856 113.522C121.482 120.296 111.585 113.522 111.585 113.522L120.53 65.1626C120.53 65.1626 128.333 104.678 129.856 113.522Z" fill="#FF31CF"/>
</svg>
